<svg xmlns="http://www.w3.org/2000/svg" viewBox="0 0 305.65 81.17"><defs><style>.cls-1{fill:#515051;}.cls-2{fill:#547284;}.cls-3{fill:#0c3453;}.cls-13,.cls-4,.cls-5{fill:none;}.cls-4,.cls-5{stroke:#fff;}.cls-4{stroke-linejoin:round;stroke-width:2px;}.cls-13,.cls-5{stroke-miterlimit:10;}.cls-6{font-size:14.72px;fill:#231f20;font-family:Montserrat-Light, Montserrat;font-weight:300;}.cls-7{letter-spacing:-0.01em;}.cls-8{letter-spacing:-0.01em;}.cls-9{letter-spacing:-0.01em;}.cls-10{letter-spacing:0em;}.cls-11{letter-spacing:-0.01em;}.cls-12{letter-spacing:-0.01em;}.cls-13{stroke:#515051;stroke-width:0.5px;}</style></defs><g id="Layer_2" data-name="Layer 2"><g id="Long_Version" data-name="Long Version"><path d="M12.86,57.91a23.09,23.09,0,0,1-5.4-1.85A22.68,22.68,0,0,1,2.77,53l2.67-3.51a19.32,19.32,0,0,0,6.19,3.69A21.31,21.31,0,0,0,19,54.4q5.74,0,8.91-2.27A7.44,7.44,0,0,0,31,45.73v0a5.91,5.91,0,0,0-1.37-4.09,8.28,8.28,0,0,0-3.54-2.31,38.46,38.46,0,0,0-5.58-1.42l-.2,0-.23-.05-.89-.18a58.7,58.7,0,0,1-7.54-1.86,10.85,10.85,0,0,1-4.81-3.3,9.55,9.55,0,0,1-2-6.44v0a13,13,0,0,1,1.86-7.09,11.71,11.71,0,0,1,5.43-4.48,21.71,21.71,0,0,1,8.58-1.54,21.3,21.3,0,0,1,4.7.53A23.55,23.55,0,0,1,30,15a27,27,0,0,1,4.47,2.6L31.9,21a23.77,23.77,0,0,0-5.66-3,16,16,0,0,0-5.48-1q-5.48,0-8.49,2.3a7.71,7.71,0,0,0-3,6.49v0a5.28,5.28,0,0,0,1.51,4A9.33,9.33,0,0,0,14.5,32a60,60,0,0,0,6.11,1.47l.26.07.29.06.36.07.35.08a42.18,42.18,0,0,1,7,2,11.09,11.09,0,0,1,4.66,3.46,10,10,0,0,1,1.86,6.35v.06a12.35,12.35,0,0,1-1.94,7A12,12,0,0,1,27.85,57,23,23,0,0,1,19,58.52,29.4,29.4,0,0,1,12.86,57.91Z" transform="translate(-2.77 -12.37)"/><path class="cls-1" d="M43.4,56.55a6.44,6.44,0,0,1-2.19-5.21,6.31,6.31,0,0,1,2-5,8.31,8.31,0,0,1,5.68-1.77h7.58l.31,3H48.92a5.16,5.16,0,0,0-3.4,1,3.84,3.84,0,0,0,.31,5.82,7.3,7.3,0,0,0,4.25,1.06,13.71,13.71,0,0,0,4.57-.59c1.09-.39,1.63-1,1.63-1.67l.46,3A6.11,6.11,0,0,1,55,57.35a10.43,10.43,0,0,1-2.44.78,16.22,16.22,0,0,1-3,.26A9.4,9.4,0,0,1,43.4,56.55ZM56.28,43.6a5.9,5.9,0,0,0-1.48-4.29,5.59,5.59,0,0,0-4.21-1.53,10,10,0,0,0-3.19.53,9,9,0,0,0-2.76,1.49l-2.31-1.58a8.55,8.55,0,0,1,3.41-2.43,12.55,12.55,0,0,1,4.72-.86,10.76,10.76,0,0,1,4.85,1,6.87,6.87,0,0,1,3.08,2.9,9.31,9.31,0,0,1,1,4.58V58.06H56.28Z" transform="translate(-2.77 -12.37)"/><path class="cls-1" d="M66.26,26.11h3.16v32H66.26ZM81.42,44.24a6.5,6.5,0,0,0-1.6-4.7,5.92,5.92,0,0,0-4.49-1.67A6,6,0,0,0,71,39.35a5.56,5.56,0,0,0-1.55,4.21L69,39.17a7.29,7.29,0,0,1,3.21-3.24,10.18,10.18,0,0,1,4.63-1,7.11,7.11,0,0,1,5.75,2.42,10.44,10.44,0,0,1,2,6.87V58.06H81.42Z" transform="translate(-2.77 -12.37)"/><path class="cls-1" d="M92.05,26.11h3.17v3.17H92.05Zm0,9.15h3.17v22.8H92.05Z" transform="translate(-2.77 -12.37)"/><path class="cls-1" d="M105.85,52.06a3.33,3.33,0,0,0,.71,2.26,2.55,2.55,0,0,0,2,.8h2.11v2.94H108a5,5,0,0,1-4-1.58A6.51,6.51,0,0,1,102.69,52V26.11h3.16Z" transform="translate(-2.77 -12.37)"/><path d="M136,13.34h4.43V58.06H136Zm2.15,31.1,24.52-31.1h5.72L140,47.85Zm12.61-10.25,2.55-4.58,17,28.45H165Z" transform="translate(-2.77 -12.37)"/><path class="cls-1" d="M175.78,56.45a6.88,6.88,0,0,1-2.34-5.56,6.72,6.72,0,0,1,2.14-5.33,8.87,8.87,0,0,1,6.06-1.89h8.09l.33,3.14h-8.4A5.52,5.52,0,0,0,178,47.88a4.09,4.09,0,0,0,.33,6.21,7.75,7.75,0,0,0,4.54,1.14,14.5,14.5,0,0,0,4.87-.64c1.16-.42,1.74-1,1.74-1.78L190,56a6.75,6.75,0,0,1-1.86,1.3,10.12,10.12,0,0,1-2.61.83,16.41,16.41,0,0,1-3.15.28A10,10,0,0,1,175.78,56.45Zm13.74-13.81a6.28,6.28,0,0,0-1.59-4.58,5.94,5.94,0,0,0-4.48-1.63,10.67,10.67,0,0,0-3.4.56,9.71,9.71,0,0,0-3,1.6l-2.46-1.69a9.21,9.21,0,0,1,3.65-2.59,13.1,13.1,0,0,1,5-.93,11.54,11.54,0,0,1,5.17,1.07,7.41,7.41,0,0,1,3.29,3.09,10,10,0,0,1,1.12,4.89V58.06h-3.37Z" transform="translate(-2.77 -12.37)"/><path class="cls-1" d="M203.53,51.66a3.53,3.53,0,0,0,.76,2.41,2.7,2.7,0,0,0,2.12.85h2.25v3.14h-2.81a5.31,5.31,0,0,1-4.2-1.68,7,7,0,0,1-1.49-4.76V24h3.37Z" transform="translate(-2.77 -12.37)"/><path class="cls-1" d="M218.25,57.14a8.52,8.52,0,0,1-3.64-3.73,12.74,12.74,0,0,1-1.26-5.89V44.77a14.25,14.25,0,0,1,1.21-6.16,8.62,8.62,0,0,1,3.5-3.89,10.84,10.84,0,0,1,5.53-1.34,9.79,9.79,0,0,1,5.21,1.32,8.39,8.39,0,0,1,3.29,3.83,14.63,14.63,0,0,1,1.14,6.06v2.79H215.65V44.33h14.44v-.24a8.35,8.35,0,0,0-1.7-5.59,6,6,0,0,0-4.8-2,6.67,6.67,0,0,0-5.25,2.09,8.63,8.63,0,0,0-1.85,5.91v3.09a7.75,7.75,0,0,0,2,5.66,7.43,7.43,0,0,0,5.56,2,8.48,8.48,0,0,0,3.34-.7,9.27,9.27,0,0,0,2.94-2l2.29,2.2a12.94,12.94,0,0,1-4,2.69,11.61,11.61,0,0,1-4.54.94A12.11,12.11,0,0,1,218.25,57.14Z" transform="translate(-2.77 -12.37)"/><rect class="cls-2" x="289.6" y="4.88" width="16.04" height="5.75" rx="2.88"/><rect class="cls-2" x="289.6" y="15.03" width="16.04" height="5.75" rx="2.88"/><rect class="cls-2" x="289.6" y="25.19" width="16.04" height="5.75" rx="2.88"/><rect class="cls-2" x="289.6" y="35.35" width="16.04" height="5.75" rx="2.88"/><rect class="cls-2" x="256.09" y="4.88" width="16.04" height="5.75" rx="2.88"/><rect class="cls-2" x="256.09" y="15.03" width="16.04" height="5.75" rx="2.88"/><rect class="cls-2" x="256.09" y="25.19" width="16.04" height="5.75" rx="2.88"/><rect class="cls-2" x="256.09" y="35.35" width="16.04" height="5.75" rx="2.88"/><rect class="cls-3" x="267.35" width="27.37" height="45.51"/><path class="cls-4" d="M283.64,29l7.43,12.88H276.2Z" transform="translate(-2.77 -12.37)"/><circle class="cls-5" cx="280.87" cy="13.85" r="1.79"/><line class="cls-4" x1="280.87" y1="30.11" x2="280.87" y2="40.72"/><line class="cls-4" x1="280.87" y1="12.06" x2="280.87" y2="4.4"/><text class="cls-6" transform="translate(38 77.33)">D<tspan class="cls-7" x="12.16" y="0">E</tspan><tspan class="cls-8" x="21.86" y="0">V</tspan><tspan x="31.75" y="0">E</tspan><tspan class="cls-9" x="41.6" y="0">L</tspan><tspan x="50" y="0">O</tspan><tspan class="cls-7" x="62.34" y="0">P</tspan><tspan x="72.71" y="0">ER | </tspan><tspan class="cls-7" x="105.01" y="0">P</tspan><tspan class="cls-10" x="115.39" y="0">I</tspan><tspan class="cls-9" x="119.73" y="0">L</tspan><tspan class="cls-7" x="128.13" y="0">O</tspan><tspan class="cls-10" x="140.32" y="0">T | </tspan><tspan class="cls-11" x="160.46" y="0">S</tspan><tspan class="cls-12" x="169.27" y="0">T</tspan><tspan class="cls-10" x="177.35" y="0">UDENT </tspan></text><line class="cls-13" x1="75.54" y1="57.12" x2="244.31" y2="57.12"/></g></g></svg>